PathFileType	4	(X/Y/Z)	Kaydara	
DataRate	CameraRate	NumFrames	NumMarkers	Units	OrigDataRate	OrigDataStartFrame	OrigNumFrames	
60.00	60.00	4	74	mm	60.00	256	140	
Frame#	Time	Z_lasi			Z_rasi			Z_rpsi			Z_lpsi			Z_fneck			Z_fhead			Z_rhead			Z_lhead			Z_rshld			Z_relbtop			Z_relblow			Z_rwrext			Z_rwrtop			Z_rwrlow			Z_lshld			Z_lelbext			Z_lelblow			Z_lelbtop			Z_lwrext			Z_lwrtop			Z_lwrlow			Z_rtopleg			Z_ltopleg			Z_rkneefr			Z_rkneebk			Z_rkneeis			Z_lkneefr			Z_lknssbk			Z_lkneeis			Z_rankfr			Z_rankis			Z_rankbk			Z_lankfr			Z_lankbk			Z_lankis			N_lasi			N_rasi			N_rpsi			N_lpsi			N_fneck			N_bneck			N_fhead			N_rhead			N_lhead			N_rshld			N_relbtop			N_relbext			N_relblow			N_rwrext			N_rwrtop			N_rwrlow			N_lshld			N_lelbext			N_lelblow			N_lelbtop			N_lwrext			N_lwrtop			N_lwrlow			N_rtopleg			N_rkneefr			N_rkneebk			N_rkneeis			N_lkneefr			N_lknssbk			N_lkneeis			N_rankfr			N_rankis			N_rankbk			N_lankfr			N_lankbk			N_lankis			Z_relbext			Z_bneck			N_ltopleg			
		X1	Y1	Z1	X2	Y2	Z2	X3	Y3	Z3	X4	Y4	Z4	X5	Y5	Z5	X6	Y6	Z6	X7	Y7	Z7	X8	Y8	Z8	X9	Y9	Z9	X10	Y10	Z10	X11	Y11	Z11	X12	Y12	Z12	X13	Y13	Z13	X14	Y14	Z14	X15	Y15	Z15	X16	Y16	Z16	X17	Y17	Z17	X18	Y18	Z18	X19	Y19	Z19	X20	Y20	Z20	X21	Y21	Z21	X22	Y22	Z22	X23	Y23	Z23	X24	Y24	Z24	X25	Y25	Z25	X26	Y26	Z26	X27	Y27	Z27	X28	Y28	Z28	X29	Y29	Z29	X30	Y30	Z30	X31	Y31	Z31	X32	Y32	Z32	X33	Y33	Z33	X34	Y34	Z34	X35	Y35	Z35	X36	Y36	Z36	X37	Y37	Z37	X38	Y38	Z38	X39	Y39	Z39	X40	Y40	Z40	X41	Y41	Z41	X42	Y42	Z42	X43	Y43	Z43	X44	Y44	Z44	X45	Y45	Z45	X46	Y46	Z46	X47	Y47	Z47	X48	Y48	Z48	X49	Y49	Z49	X50	Y50	Z50	X51	Y51	Z51	X52	Y52	Z52	X53	Y53	Z53	X54	Y54	Z54	X55	Y55	Z55	X56	Y56	Z56	X57	Y57	Z57	X58	Y58	Z58	X59	Y59	Z59	X60	Y60	Z60	X61	Y61	Z61	X62	Y62	Z62	X63	Y63	Z63	X64	Y64	Z64	X65	Y65	Z65	X66	Y66	Z66	X67	Y67	Z67	X68	Y68	Z68	X69	Y69	Z69	X70	Y70	Z70	X71	Y71	Z71	X72	Y72	Z72	X73	Y73	Z73	X74	Y74	Z74	

36	4.250	-1592.58026	1035.00885	859.58145	-1474.38446	985.21317	671.63147	-1278.33817	1075.34729	800.51216	-1432.50366	1120.98709	974.91470	-1476.21445	1444.34479	563.29967	-1441.04858	1665.09369	433.07991	-1351.89392	1637.87552	583.37502	-1504.45511	1674.34433	591.25488	-1299.93958	1369.18884	498.40542	-1264.15398	1078.00453	421.17168	-1324.12811	1113.88290	395.55653	-1413.49701	931.56975	254.08436	-1401.11374	968.27560	219.01615	-1434.36600	999.21227	224.18047	-1593.64944	1507.38007	791.91208	-1619.16931	1177.71843	973.22945	-1620.31937	1228.90297	922.06032	-1634.51401	1282.37854	980.14153	-1694.71252	1058.09013	1096.93588	-1741.19583	1057.20963	1071.92253	-1724.47876	1031.41594	1033.30444	-1312.51434	877.40036	680.28755	-1566.82114	938.97911	1005.59738	-1434.48700	445.17338	670.61478	-1339.56299	483.53413	731.48018	-1437.65366	454.69933	785.79201	-1573.56491	469.63654	1006.32271	-1541.08337	527.34005	1091.91635	-1464.21341	487.60784	1006.91528	-1376.82968	148.01379	714.31076	-1386.02997	153.43015	786.12770	-1317.00485	152.54280	744.37378	-1531.50497	187.36584	1164.36089	-1433.75870	198.30030	1160.98167	-1485.18188	178.96154	1112.84340	-1383.17322	981.13037	-409.72816	-1606.39084	997.93068	-329.36184	-1637.48474	1080.66566	-514.92504	-1459.80972	1053.59612	-582.20634	-1425.71671	1433.33786	-284.08993	-1460.82504	1506.21323	-378.08674	-1440.61279	1594.66705	-166.35923	-1506.01929	1616.19919	-345.63465	-1376.23276	1605.81467	-343.64391	-1631.68625	1391.72836	-229.89355	-1629.22913	1124.85359	-106.49624	-1584.62723	1082.84103	-143.31604	-1564.29626	1150.00389	-89.40877	-1517.00104	952.97295	76.05471	-1538.88275	982.82082	105.58691	-1504.15955	1014.04465	110.50117	-1284.89670	1397.62665	-475.16163	-1347.31949	1097.21260	-557.66148	-1258.93509	1114.85130	-544.18518	-1299.79416	1098.46977	-614.63058	-1248.78273	886.07590	-545.99674	-1231.44547	896.15669	-508.54431	-1271.78925	896.81671	-485.38673	-1699.96307	893.27530	-408.89805	-1638.98834	414.73633	-338.01678	-1684.49295	458.53035	-403.86002	-1567.17575	444.84966	-400.83649	-1392.42416	427.60586	-343.99830	-1376.67557	440.09308	-429.58141	-1489.83215	449.53934	-389.12971	-1622.21313	180.27020	-466.97784	-1561.74927	198.69236	-519.44527	-1632.24854	196.65045	-541.28090	-1447.22443	166.51943	-433.27896	-1512.93549	175.48512	-438.48621	-1489.49615	179.89721	-367.47189	-1342.79831	1057.88963	463.08254	-1537.32819	1525.44418	667.51144	-1361.34644	921.22276	-512.78088 
37	4.267	-1591.84891	1035.81589	853.30132	-1473.20251	985.88913	665.45547	-1277.76100	1075.95230	795.37727	-1432.05170	1121.51062	969.40727	-1474.59015	1446.47614	559.39308	-1438.47702	1668.17764	431.08952	-1350.23132	1640.02655	581.73016	-1502.90680	1676.50208	588.90636	-1298.12668	1370.90942	495.01747	-1261.48071	1077.38647	421.74606	-1321.55624	1113.79990	395.49759	-1415.10559	935.31059	254.09607	-1402.77939	971.69220	219.76816	-1435.14389	1003.40721	225.23182	-1592.85553	1508.44193	787.72881	-1619.41986	1177.80991	967.39754	-1620.63843	1229.20059	916.11351	-1634.69574	1282.26395	974.42429	-1696.11832	1057.33681	1089.01390	-1742.49252	1056.77917	1063.73032	-1725.62042	1031.16516	1024.97513	-1311.42487	877.60857	675.12772	-1566.52496	939.58748	999.56635	-1433.10333	445.07015	668.63815	-1338.06961	483.77014	729.32747	-1436.50055	455.27203	783.71338	-1573.84399	470.34595	1001.30836	-1540.80719	528.36998	1086.51718	-1464.68842	488.30742	1000.80452	-1376.52100	148.04875	713.81325	-1385.11642	153.76417	786.06628	-1316.58829	152.58089	743.74474	-1530.55161	188.78954	1160.58578	-1432.66357	199.55299	1155.68871	-1484.81537	180.25013	1108.19702	-1381.77368	980.44785	-409.10328	-1604.13773	997.24144	-326.81019	-1636.06033	1081.11351	-511.94489	-1458.72345	1054.10019	-580.18158	-1421.72668	1430.96146	-278.14651	-1455.79300	1504.91913	-372.09400	-1436.37848	1591.78711	-159.48102	-1500.34546	1614.54742	-339.18659	-1370.55634	1603.08594	-336.19175	-1628.51181	1390.90607	-225.53082	-1632.82135	1118.47878	-110.63251	-1588.16528	1077.16026	-146.79875	-1568.48999	1144.97398	-93.56901	-1518.66348	953.79265	77.20989	-1539.45053	985.97992	105.49821	-1503.64136	1016.10893	108.43003	-1280.34546	1395.95398	-468.47126	-1343.37036	1096.48781	-554.73797	-1255.12596	1113.65005	-540.77400	-1295.65628	1098.65257	-611.66389	-1245.36438	884.82582	-548.24085	-1228.49014	893.77602	-510.45540	-1268.76747	893.86002	-487.38960	-1698.99811	894.43916	-404.54670	-1642.63245	417.79152	-320.16880	-1688.36349	462.90001	-385.24612	-1571.14349	448.59585	-382.66155	-1391.98792	427.26776	-345.81787	-1376.44455	439.56646	-431.03165	-1489.77875	449.28940	-390.00500	-1625.73822	186.69933	-457.04018	-1565.83252	207.38628	-509.61586	-1636.33987	205.72393	-530.90118	-1447.17194	166.14689	-433.70552	-1512.87720	175.04368	-438.70842	-1489.34860	179.66595	-367.79015	-1340.25955	1057.75894	463.27408	-1535.70389	1527.57553	663.60497	-1360.94879	920.66101	-512.90607 
38	4.283	-1591.35117	1036.40793	846.92726	-1471.87164	986.40839	659.68887	-1277.08168	1076.23146	790.60081	-1431.90094	1121.65977	965.31700	-1472.75635	1448.63861	556.16737	-1435.62531	1670.97076	429.25575	-1348.76221	1642.43317	580.50213	-1501.24313	1678.68301	586.51047	-1295.76370	1373.07892	492.36649	-1258.72780	1078.19901	421.88881	-1319.10858	1115.10406	395.40077	-1417.14615	940.97626	254.20290	-1404.60938	977.15508	220.23863	-1436.28067	1009.68346	226.21696	-1592.23724	1509.38492	784.06242	-1619.68719	1177.78061	961.65955	-1620.71640	1229.59122	910.14618	-1635.15259	1281.81458	968.91579	-1698.64365	1055.96680	1080.38261	-1744.63867	1055.79697	1054.73740	-1727.58179	1030.66368	1015.78148	-1310.51956	877.75139	670.05371	-1566.77261	939.99374	993.60519	-1431.49155	444.96239	666.75636	-1336.59225	483.87981	727.45491	-1435.40146	455.79559	781.74919	-1574.51782	470.75584	995.99403	-1540.31708	528.92624	1080.55138	-1465.30945	488.61412	994.57550	-1376.15250	148.01625	713.39638	-1384.71237	154.05946	785.60883	-1316.05530	152.47351	743.15399	-1529.51874	189.96128	1156.54114	-1431.65817	200.55943	1150.10017	-1484.45374	180.93475	1103.51921	-1380.69489	979.74625	-408.17196	-1602.27097	996.66977	-324.35715	-1634.75815	1081.50604	-508.95210	-1457.48581	1055.09995	-577.99210	-1417.84195	1428.63342	-272.34398	-1451.01944	1503.71414	-366.51707	-1432.30209	1589.14597	-152.91985	-1494.86481	1612.97821	-332.93064	-1365.36728	1600.55450	-329.23637	-1625.49103	1389.20471	-221.42309	-1637.35443	1113.18810	-114.49689	-1593.95020	1071.43005	-150.99845	-1573.18298	1140.35683	-97.73597	-1521.35315	955.46921	78.25574	-1540.59586	989.83170	104.98626	-1503.91968	1018.89511	105.63052	-1275.92979	1394.02313	-461.77380	-1339.70230	1095.61783	-552.55348	-1251.14136	1112.29507	-537.45670	-1291.25778	1098.82607	-608.75320	-1241.79039	883.59741	-550.28690	-1225.26451	891.52779	-511.97178	-1265.67375	891.06651	-489.45667	-1698.05786	896.08536	-400.24055	-1645.96664	422.47517	-302.16888	-1691.76849	468.50971	-366.91898	-1574.39667	453.29643	-364.77077	-1392.32712	426.96819	-346.88770	-1376.81442	439.28268	-432.13867	-1489.76105	449.13898	-390.52937	-1629.51263	193.70871	-446.34048	-1570.10605	216.42921	-498.97572	-1640.75027	215.06430	-519.46125	-1447.14920	165.86397	-434.00208	-1512.87231	174.74081	-438.87512	-1489.32068	179.52620	-367.90047	-1337.74292	1059.03694	463.23086	-1533.87009	1529.73785	660.37926	-1360.55603	920.62935	-513.34679 
39	4.300	-1590.73730	1036.90987	840.74326	-1470.53879	987.01172	654.15878	-1276.63216	1076.39282	786.02623	-1432.10922	1121.55334	960.07195	-1470.72388	1450.82474	553.52852	-1432.83890	1673.32230	427.66201	-1347.00134	1644.80652	579.47132	-1499.71725	1680.87631	584.31843	-1292.76947	1375.74219	490.48069	-1254.90845	1080.18509	420.74409	-1315.74066	1117.59377	394.93473	-1419.93866	947.73628	254.92643	-1407.43515	983.33717	220.99283	-1437.98782	1016.63887	227.33219	-1591.64093	1510.16144	780.89363	-1620.31921	1177.29774	956.13365	-1621.21506	1229.30809	904.36508	-1635.91797	1281.13190	963.64502	-1701.75644	1054.04152	1071.05995	-1747.38632	1054.50569	1044.86122	-1730.02991	1029.76006	1005.71121	-1309.29703	877.83897	665.96237	-1567.25311	940.17883	987.87186	-1429.96262	444.98856	664.89868	-1335.01633	483.97121	725.69115	-1434.28345	456.26762	779.74480	-1575.54001	470.85369	990.34195	-1540.99991	529.46625	1074.71962	-1466.38245	489.11148	988.27263	-1375.71777	148.00015	712.90871	-1384.37561	154.29531	785.24956	-1315.83496	152.34641	742.80540	-1528.58566	190.87563	1152.18155	-1430.93018	201.48434	1144.31557	-1484.36249	181.52744	1098.58284	-1379.45969	979.27223	-406.97937	-1600.80887	996.16432	-322.13486	-1633.70956	1082.09152	-506.01692	-1456.59180	1056.26862	-575.97122	-1414.62158	1426.40396	-266.63412	-1446.68274	1502.60773	-360.77923	-1428.33145	1586.88538	-146.70474	-1489.95651	1611.14838	-327.28275	-1359.85382	1598.07388	-322.40318	-1622.88834	1387.03873	-218.03570	-1641.86691	1110.70442	-116.13196	-1599.67682	1066.25267	-152.76674	-1576.77216	1137.36313	-98.90814	-1524.92996	955.45059	80.32232	-1542.74490	991.72867	105.00197	-1505.20660	1019.63242	103.65426	-1271.61720	1392.09808	-455.45212	-1335.54337	1094.64836	-550.13195	-1246.85715	1110.97374	-533.97038	-1286.73294	1098.85323	-605.58563	-1238.10959	882.35153	-552.04903	-1221.87767	889.34227	-513.52612	-1262.50282	888.43269	-491.18500	-1697.40158	898.15887	-396.04691	-1648.92059	427.97585	-285.23537	-1694.68292	474.65874	-349.95953	-1577.83066	458.39867	-346.94225	-1392.52960	426.80187	-346.92528	-1376.52756	439.13319	-432.40643	-1489.16275	448.70869	-390.23865	-1633.58475	201.28269	-435.34061	-1574.57611	225.03128	-487.58469	-1645.15625	224.46617	-508.24356	-1446.96579	165.63227	-434.09485	-1512.68661	174.57266	-439.09538	-1489.31870	179.42551	-368.10673	-1334.23294	1061.49467	462.35931	-1531.83762	1531.92413	657.74048	-1360.44052	920.70992	-513.62534 
